<svg width="340" height="383" viewBox="0 0 340 383" fill="none" xmlns="http://www.w3.org/2000/svg">
<path fill-rule="evenodd" clip-rule="evenodd" d="M308.63 341.444L338.717 4.42067L339.111 0H334.678H4.43287H0L0.393704 4.42067L30.4481 341.499L30.6986 344.31L33.406 345.06L168.273 382.5H170.437L305.672 345.005L308.379 344.255L308.63 341.444Z" fill="#1572B6"/>
<path fill-rule="evenodd" clip-rule="evenodd" d="M312.976 23.906H169.556V357.937L286.039 325.641L312.976 23.906Z" fill="#35A8DB"/>
<path fill-rule="evenodd" clip-rule="evenodd" d="M169.396 113.644L68.2397 155.774L71.5951 197.483L169.396 155.667L273.431 111.188L277.744 68.52L169.396 113.644Z" fill="#E9E9E8"/>
<path fill-rule="evenodd" clip-rule="evenodd" d="M169.396 68.5222H170.146H171H171.852H172.706H173.56H174.414H175.268H176.122H176.976H177.831H178.685H179.539H180.393H181.247H182.101H182.956H183.807H184.661H185.515H186.37H187.224H188.078H188.932H189.786H190.64H191.495H192.349H193.2H194.055H194.909H195.763H196.617H197.471H198.325H199.179H200.034H200.888H201.742H202.596H203.45H204.304H205.158H206.01H206.864H207.718H208.573H209.427H210.281H211.135H211.989H212.843H213.697H214.552H215.406H216.26H217.112H217.966H218.82H219.674H220.528H221.382H222.237H223.091H223.945H224.799H225.653H226.507H227.359H228.213H229.067H229.921H230.776H231.63H232.484H233.338H234.192H235.046H235.9H236.755H237.609H238.463H239.315H240.169H241.023H241.877H242.731H243.585H244.439H245.294H246.148H247.002H247.856H248.71H249.562H250.416H251.27H252.124H252.978H253.833H254.687H255.541H256.395H257.249H258.103H258.957H259.812H260.666H261.517H262.372H263.226H264.08H264.934H265.788H266.642H267.497H268.351H269.205H270.059H270.913H271.767H272.621H273.473H274.327H275.181H276.036H276.89H277.744L276.89 76.9676L276.036 85.4122L275.181 93.8569L274.327 102.304L273.473 110.749L273.431 111.188H272.621H271.767H270.913H270.059H269.205H268.351H267.497H266.642H265.788H264.934H264.08H263.226H262.372H261.517H260.666H259.812H258.957H258.103H257.249H256.395H255.541H254.687H253.833H252.978H252.124H251.27H250.416H249.562H248.71H247.856H247.002H246.148H245.294H244.439H243.585H242.731H241.877H241.023H240.169H239.315H238.463H237.609H236.755H235.9H235.046H234.192H233.338H232.484H231.63H230.776H229.921H229.067H228.213H227.359H226.507H225.653H224.799H223.945H223.091H222.237H221.382H220.528H219.674H218.82H217.966H217.112H216.26H215.406H214.552H213.697H212.843H211.989H211.135H210.281H209.427H208.573H207.718H206.864H206.01H205.158H204.304H203.45H202.596H201.742H200.888H200.034H199.179H198.325H197.471H196.617H195.763H194.909H194.055H193.2H192.349H191.495H190.64H189.786H188.932H188.078H187.224H186.37H185.515H184.661H183.807H182.956H182.101H181.247H180.393H179.539H178.685H177.831H176.976H176.122H175.293H175.268H174.414H173.56H172.706H171.852H171H170.146H169.521H169.396H169.292H168.437H167.583H166.729H165.875H165.021H164.167H163.313H162.459H161.606H160.752H159.897H159.044H158.19H157.336H156.482H155.628H154.774H153.92H153.066H152.212H151.358H150.504H149.65H148.796H147.942H147.088H146.234H145.38H144.526H143.672H142.818H141.964H141.11H140.256H139.402H138.549H137.695H136.841H135.987H135.133H134.279H133.425H132.571H131.717H130.863H130.009H129.155H128.301H127.447H126.593H125.739H124.885H124.031H123.177H122.323H121.469H120.615H119.762H118.907H118.054H117.199H116.346H115.492H114.638H113.784H112.93H112.076H111.222H110.368H109.514H108.66H107.806H106.952H106.098H105.244H104.39H103.536H102.682H101.828H100.974H100.12H99.2665H98.4123H97.5584H96.7048H95.8506H94.9967H94.1426H93.2887H92.4345H91.5809H90.727H89.8728H89.0189H88.1648H87.3111H86.457H85.6031H84.7491H83.895H83.0414H82.1872H81.3333H80.4794H79.6252H78.7714H77.9174H77.0635H76.2094H75.3555H74.5016H73.6474H72.7938H71.9399H71.0857H70.2316H69.3777H68.524H67.6699H66.816H65.9621H65.1079H64.4032L64.2543 109.981L63.4001 103.07L62.5462 96.1613L61.6921 89.2497L60.8382 82.3408L59.9845 75.4316L59.1306 68.5222H59.9845H60.8382H61.6921H62.5462H63.4001H64.2543H65.1079H65.9621H66.816H67.6699H68.524H69.3777H70.2316H71.0857H71.9399H72.7938H73.6474H74.5016H75.3555H76.2094H77.0635H77.9174H78.7714H79.6252H80.4794H81.3333H82.1872H83.0414H83.895H84.7491H85.6031H86.457H87.3111H88.1648H89.0189H89.8728H90.727H91.5809H92.4345H93.2887H94.1426H94.9967H95.8506H96.7048H97.5584H98.4123H99.2665H100.12H100.974H101.828H102.682H103.536H104.39H105.244H106.098H106.952H107.806H108.66H109.514H110.368H111.222H112.076H112.93H113.784H114.638H115.492H116.346H117.199H118.054H118.907H119.762H120.615H121.469H122.323H123.177H124.031H124.885H125.739H126.593H127.447H128.301H129.155H130.009H130.863H131.717H132.571H133.425H134.279H135.133H135.987H136.841H137.695H138.549H139.402H140.256H141.11H141.964H142.818H143.672H144.526H145.38H146.234H147.088H147.942H148.796H149.65H150.504H151.358H152.212H153.066H153.92H154.774H155.628H156.482H157.336H158.19H159.044H159.897H160.752H161.606H162.459H163.313H164.167H165.021H165.875H166.729H167.583H168.437H169.292H169.396Z" fill="#E9E9E8"/>
<path fill-rule="evenodd" clip-rule="evenodd" d="M68.3958 155.78H269.755L266.087 197.964L71.7509 197.483L68.3958 155.78Z" fill="#E9E9E8"/>
<path fill-rule="evenodd" clip-rule="evenodd" d="M74.6875 220.981L118.735 220.999L121.609 255.491L169.396 267.342L218.456 253.573L221.776 197.167L266.216 196.47L258.248 288.09L169.555 313.981L80.2245 287.612L74.6875 220.981Z" fill="#E9E9E8"/>
<path fill-rule="evenodd" clip-rule="evenodd" d="M169.556 155.598L273.431 111.188L277.744 68.52L169.556 113.578V155.598Z" fill="#FFFFFE"/>
<path fill-rule="evenodd" clip-rule="evenodd" d="M169.556 68.5222H170.146H171H171.852H172.706H173.56H174.414H175.268H176.122H176.977H177.831H178.685H179.539H180.393H181.247H182.101H182.956H183.807H184.661H185.516H186.37H187.224H188.078H188.932H189.786H190.64H191.495H192.349H193.2H194.055H194.909H195.763H196.617H197.471H198.325H199.179H200.034H200.888H201.742H202.596H203.45H204.304H205.159H206.01H206.864H207.719H208.573H209.427H210.281H211.135H211.989H212.843H213.698H214.552H215.406H216.26H217.112H217.966H218.82H219.674H220.528H221.382H222.237H223.091H223.945H224.799H225.653H226.507H227.359H228.213H229.067H229.921H230.776H231.63H232.484H233.338H234.192H235.046H235.901H236.755H237.609H238.463H239.315H240.169H241.023H241.877H242.731H243.585H244.439H245.294H246.148H247.002H247.856H248.71H249.562H250.416H251.27H252.124H252.979H253.833H254.687H255.541H256.395H257.249H258.103H258.958H259.812H260.666H261.518H262.372H263.226H264.08H264.934H265.788H266.642H267.497H268.351H269.205H270.059H270.913H271.767H272.621H273.473H274.327H275.181H276.036H276.89H277.744L276.89 76.9676L276.036 85.4122L275.181 93.8569L274.327 102.304L273.473 110.749L273.431 111.188H272.621H271.767H270.913H270.059H269.205H268.351H267.497H266.642H265.788H264.934H264.08H263.226H262.372H261.518H260.666H259.812H258.958H258.103H257.249H256.395H255.541H254.687H253.833H252.979H252.124H251.27H250.416H249.562H248.71H247.856H247.002H246.148H245.294H244.439H243.585H242.731H241.877H241.023H240.169H239.315H238.463H237.609H236.755H235.901H235.046H234.192H233.338H232.484H231.63H230.776H229.921H229.067H228.213H227.359H226.507H225.653H224.799H223.945H223.091H222.237H221.382H220.528H219.674H218.82H217.966H217.112H216.26H215.406H214.552H213.698H212.843H211.989H211.135H210.281H209.427H208.573H207.719H206.864H206.01H205.159H204.304H203.45H202.596H201.742H200.888H200.034H199.179H198.325H197.471H196.617H195.763H194.909H194.055H193.2H192.349H191.495H190.64H189.786H188.932H188.078H187.224H186.37H185.516H184.661H183.807H182.956H182.101H181.247H180.393H179.539H178.685H177.831H176.977H176.122H175.293H175.268H174.414H173.56H172.706H171.852H171H170.146H169.556V68.5222Z" fill="#FFFFFE"/>
<path fill-rule="evenodd" clip-rule="evenodd" d="M169.556 155.78H269.755L266.087 197.964L169.556 197.725V155.78Z" fill="#FFFFFE"/>
<path fill-rule="evenodd" clip-rule="evenodd" d="M169.556 267.297L218.456 253.573L221.776 197.167L266.217 196.47L258.248 288.09L169.556 313.981V313.979V267.297Z" fill="#FFFFFE"/>
</svg>
